# xmcd
#
# Track frame offsets:
#	150
#	20680
#	39919
#	57275
#	72912
#	88033
#	104935
#	117846
#	135491
#	149252
#	163057
#
# Disc length: 2303 seconds
#
# Revision: 1
# Processed by: cddbd v1.5.2PL0 Copyright (c) Steve Scherf et al.
# Submitted via: audiograbber 1.83.01
#
DISCID=9c08fd0b
DTITLE=Hank Stone - San Antone
DYEAR=2008
DGENRE=Country
TTITLE0=We Go Back A Long Way
TTITLE1=I´m Still Not Over You
TTITLE2=Man In The Mirror
TTITLE3=Summer Wind
TTITLE4=Love Me
TTITLE5=As Much Of Nothing
TTITLE6=Cold Day In Hell
TTITLE7=I Did The Right Thing
TTITLE8=San Antone
TTITLE9=The Bed I´m Dreaming On
TTITLE10=Where No One Stands Alone
EXTD=
EXTT0=
EXTT1=
EXTT2=
EXTT3=
EXTT4=
EXTT5=
EXTT6=
EXTT7=
EXTT8=
EXTT9=
EXTT10=
PLAYORDER=
